Coordinates
version=1
nRows=12
nColumns=34
inDegrees=no

Units are S.I. units (second, meters, Newtons, ...)
If the header above contains a line with 'inDegrees', this indicates whether rotational values are in degrees (yes) or radians (no).

endheader
time	pelvis_tilt	pelvis_list	pelvis_rotation	pelvis_tx	pelvis_ty	pelvis_tz	hip_flexion_r	hip_adduction_r	hip_rotation_r	knee_angle_r	ankle_angle_r	subtalar_angle_r	mtp_angle_r	hip_flexion_l	hip_adduction_l	hip_rotation_l	knee_angle_l	ankle_angle_l	subtalar_angle_l	mtp_angle_l	lumbar_extension	lumbar_bending	lumbar_rotation	arm_flex_r	arm_add_r	arm_rot_r	elbow_flex_r	pro_sup_r	arm_flex_l	arm_add_l	arm_rot_l	elbow_flex_l	pro_sup_l
1.22	-0.280076	-0.034566	0.0263908	-0.361005	1.01463	-0.608132	0.835784	-0.0961342	-0.105442	0.696522	-0.181053	0.00714066	-0.129736	0.809364	-0.164219	-0.134593	0.507267	-0.390589	0.268899	-0.129736	-0.434022	0.0725692	-0.0192997	-0.925053	-0.165348	-0.136468	0.90643	1.72713	-0.807861	-0.28499	0.0162366	1.14022	1.68344
1.23	-0.281565	-0.0365314	0.0237522	-0.353563	0.986294	-0.608052	0.875577	-0.100774	-0.100678	0.808567	-0.0319113	-0.0128237	-0.129736	0.876971	-0.183848	-0.179528	0.75685	0.0255009	0.252126	-0.129736	-0.443659	0.0725281	-0.014096	-0.914542	-0.16094	-0.123565	0.906453	1.71797	-0.791377	-0.281058	0.0172066	1.1387	1.69085
1.24	-0.285642	-0.0420135	0.021248	-0.347489	0.958846	-0.608293	0.913361	-0.103589	-0.10125	0.904728	0.105622	-0.0499531	-0.129736	0.928836	-0.201988	-0.175564	0.875306	0.174091	0.226519	-0.129736	-0.45543	0.0766343	-0.00713261	-0.895549	-0.159526	-0.109144	0.901162	1.73395	-0.765899	-0.276935	0.0205955	1.13293	1.69904
1.25	-0.29347	-0.0440571	0.0170254	-0.342817	0.933181	-0.608259	0.951847	-0.108134	-0.101751	0.983051	0.21246	-0.0963637	-0.129736	0.980456	-0.218976	-0.19478	0.966424	0.250413	0.106585	-0.129736	-0.46911	0.0758749	2.66168e-05	-0.864236	-0.159634	-0.0887438	0.892228	1.72889	-0.730112	-0.275004	0.0272119	1.12286	1.69934
1.26	-0.314483	-0.0487828	0.0173195	-0.339786	0.907594	-0.608542	1.00257	-0.115109	-0.108314	1.05233	0.294169	-0.152304	-0.129736	1.04169	-0.231015	-0.167359	1.04923	0.331753	0.0972919	-0.129736	-0.471876	0.0795902	0.00414482	-0.825648	-0.161339	-0.0668841	0.880122	1.72839	-0.68706	-0.274489	0.0367999	1.10776	1.70062
1.27	-0.337606	-0.0518043	0.0169161	-0.337195	0.883977	-0.60843	1.05664	-0.121531	-0.108344	1.11963	0.348024	-0.216038	-0.129736	1.10199	-0.240138	-0.152465	1.12016	0.383168	0.0363777	-0.129736	-0.476116	0.0804464	0.00761265	-0.777152	-0.16418	-0.0415425	0.865418	1.71996	-0.635792	-0.2755	0.0465643	1.08835	1.70014
1.28	-0.358144	-0.058415	0.0133438	-0.334948	0.863035	-0.607781	1.11081	-0.121242	-0.100952	1.18691	0.365931	-0.287598	-0.129736	1.15793	-0.251675	-0.128509	1.18649	0.417625	-0.0253806	-0.129736	-0.487778	0.0831124	0.0151634	-0.72021	-0.169829	-0.0138281	0.852456	1.70967	-0.576475	-0.276899	0.0550735	1.0691	1.69225
1.29	-0.37465	-0.0674133	0.00379923	-0.333128	0.844955	-0.606927	1.16272	-0.114684	-0.0876978	1.25139	0.353298	-0.358882	-0.129736	1.21081	-0.267878	-0.0957086	1.25026	0.43025	-0.0881832	-0.129736	-0.508612	0.0860398	0.0290879	-0.657443	-0.179928	0.0156517	0.849221	1.67629	-0.510074	-0.278427	0.0633906	1.05407	1.67264
1.3	-0.390142	-0.0701859	-0.0085696	-0.331917	0.829368	-0.606638	1.21348	-0.111994	-0.0689137	1.31023	0.327218	-0.418812	-0.129736	1.25875	-0.279836	-0.065236	1.30625	0.427684	-0.150469	-0.129736	-0.533618	0.0823205	0.0417255	-0.58981	-0.193481	0.0457528	0.849796	1.67365	-0.438224	-0.281438	0.0730251	1.03911	1.67022
1.31	-0.407874	-0.0643995	-0.0170795	-0.331329	0.815624	-0.607308	1.26387	-0.120131	-0.048387	1.36145	0.301571	-0.464836	-0.129736	1.3018	-0.280627	-0.0430764	1.35114	0.420381	-0.207071	-0.129736	-0.556656	0.0726409	0.044872	-0.518001	-0.208753	0.0781446	0.846876	1.74218	-0.362755	-0.287527	0.0847201	1.0171	1.72269
1.32	-0.428066	-0.0577358	-0.0203459	-0.331001	0.803137	-0.608482	1.31134	-0.134276	-0.0337269	1.40381	0.28196	-0.501759	-0.129736	1.34273	-0.275479	-0.025234	1.38704	0.414773	-0.254689	-0.129736	-0.575991	0.0650857	0.0414369	-0.445231	-0.226197	0.115842	0.85357	1.7725	-0.286154	-0.29768	0.10189	1.00125	1.75219
1.33	-0.448841	-0.0559316	-0.0229553	-0.330476	0.791617	-0.609333	1.35278	-0.1456	-0.0277562	1.43785	0.269566	-0.534009	-0.129736	1.38251	-0.273968	-0.00773682	1.41848	0.412415	-0.293921	-0.129736	-0.593124	0.0625328	0.0390173	-0.374305	-0.245554	0.148736	0.869434	1.77911	-0.211072	-0.311112	0.11897	0.995483	1.75762
